<svg xmlns="http://www.w3.org/2000/svg" fill="none" viewBox="0 0.5 108 18">
  <path fill="#146EF5" fill-rule="evenodd" d="m28.8562.5-9.2076 18H11l3.8534-7.46h-.1729C11.5015 15.1668 6.7583 17.8835 0 18.5v-7.3567s4.32345-.2554 6.86508-2.92755H0V.500142h7.71561V6.84612l.17317-.00071L11.0417.500142h5.8351V6.80588l.1731-.00028L20.3211.5h8.5351Z" clip-rule="evenodd"/>
  <path fill="currentColor" d="M79.0662 16.5132h2.4849V2.25h-2.4849v14.2632Z"/>
  <path fill="currentColor" fill-rule="evenodd" d="M65.3675 16.3675c.54.2245 1.0892.3368 1.6475.3368.9223 0 1.7476-.2245 2.4758-.6736.7281-.449 1.2925-1.0679 1.693-1.8568.4005-.7949.6007-1.6961.6007-2.7034 0-1.0073-.2063-1.90839-.6189-2.70332-.4127-.79492-.9861-1.41084-1.7204-1.84775-.7342-.44297-1.5686-.66142-2.5031-.65536-.5946 0-1.165.1153-1.7112.34589-.5461.23059-1.0012.55827-1.3653.98304-.0281.03234-.0554.065-.0819.09799V2.2591h-2.494v14.2541h2.4758l-.005-1.3316c.064.0785.1325.1552.2052.2302.3944.4066.8617.7251 1.4018.9557Zm2.5486-2.3028c-.4066.2488-.8708.3732-1.3927.3732-.5158 0-.9891-.1275-1.4199-.3823-.4309-.261-.7737-.6159-1.0286-1.065-.2488-.449-.3732-.9588-.3732-1.5292-.006-.5704.1153-1.0801.3641-1.52913.2549-.45511.5977-.80707 1.0286-1.05586.4308-.25486.9072-.37926 1.429-.37319.5219-.00607.9861.11529 1.3927.36409.4126.24272.7281.59164.9466 1.04675.2245.44904.3368.96484.3368 1.54734 0 .5826-.1123 1.0984-.3368 1.5474-.2185.4491-.534.801-.9466 1.0559Z" clip-rule="evenodd"/>
  <path fill="currentColor" d="M32.4562 3.11471h2.8399l2.5404 9.27759 2.7025-9.27759h2.3666l2.9309 9.09139 2.4394-9.09139h2.6032L47.038 16.5132h-2.4485l-2.9804-8.88161-2.7358 8.88161h-2.4758L32.4562 3.11471Z"/>
  <path fill="currentColor" fill-rule="evenodd" d="M55.0729 16.7498c-.9892.0061-1.8812-.2124-2.6761-.6553-.7889-.4491-1.4108-1.0711-1.866-1.866-.449-.7949-.6735-1.7021-.6735-2.7216 0-.9891.2306-1.88411.6918-2.6851.4611-.801 1.0861-1.42602 1.875-1.87506.7889-.44904 1.6687-.67356 2.6396-.67356 1.0923 0 2.048.24272 2.8672.72817.8253.48545 1.4412 1.17419 1.8478 2.0662.4126.88595.5613 1.90235.446 3.04925H52.428c.0218.4569.1358.8726.342 1.247.2306.4126.5522.7342.9648.9648.4127.2306.8738.3459 1.3836.3459.3883-.0061.7494-.0728 1.0831-.2002.3338-.1335.6159-.3125.8465-.5371.2367-.2245.4036-.4793.5007-.7645h2.6032c-.1578.6978-.4733 1.3198-.9466 1.8659-.4734.5401-1.068.9618-1.7841 1.2652-.716.3034-1.4988.4521-2.3483.446Zm-2.2938-7.13611c-.1454.25358-.2462.52661-.3023.81921h5.1683c-.0375-.3696-.1516-.70638-.3422-1.01036-.2185-.35802-.5158-.63412-.892-.8283-.3762-.20025-.801-.30037-1.2743-.30037-.5037 0-.9618.11529-1.3745.34588-.4126.23059-.7403.55524-.983.97394Z" clip-rule="evenodd"/>
  <path fill="currentColor" d="M73.6141 6.48253c0-.81313.185-1.53524.5552-2.16633.3701-.63715.889-1.13171 1.5565-1.48366.6735-.35802 1.4594-.5431 2.3574-.55523v2.21183c-.4187.00607-.7767.09406-1.074.26397-.2913.16384-.5158.40353-.6736.71907-.1452.2905-.2236.62728-.2351 1.01035h1.9281v2.10261H76.099v7.92806h-2.4849V8.58514h-1.602V6.48253h1.602Z"/>
  <path fill="currentColor" fill-rule="evenodd" d="M87.868 16.7316c-1.0134 0-1.9206-.2215-2.7216-.6644-.7949-.4491-1.4199-1.068-1.875-1.8569-.4491-.7949-.6736-1.696-.6736-2.7034 0-1.0133.2245-1.91748.6736-2.71241.4551-.801 1.0801-1.42298 1.875-1.86595.801-.44298 1.7082-.66447 2.7216-.66447 1.0194 0 1.9297.22149 2.7306.66447.8071.44297 1.4352 1.06192 1.8842 1.85685.449.79492.6766 1.70211.6827 2.72151-.0061 1.0074-.2337 1.9085-.6827 2.7034-.443.7889-1.068 1.4078-1.8751 1.8569-.807.4429-1.7203.6644-2.7397.6644Zm0-2.2846c.534 0 1.0073-.1214 1.4199-.3641.4127-.2488.7312-.5947.9558-1.0377.2245-.449.3367-.9618.3367-1.5383 0-.5825-.1122-1.0983-.3367-1.54733-.2246-.44904-.5431-.79492-.9558-1.03765-.4126-.24879-.8859-.37319-1.4199-.37319-.5279 0-.9982.1244-1.4109.37319-.4065.24273-.7221.58861-.9466 1.03765-.2245.44903-.3337.96483-.3277 1.54733 0 .5765.1123 1.0893.3368 1.5383.2306.443.5461.7889.9466 1.0377.4066.2427.8739.3641 1.4018.3641Z" clip-rule="evenodd"/>
  <path fill="currentColor" d="M95.8506 6.48253h-2.767l2.9946 10.03067h2.4212l1.9696-6.4066 2.126 6.4066h2.385l3.004-10.03067h-2.503l-1.704 6.24347-1.883-6.24347h-2.4207l-1.8738 6.38097-1.7489-6.38097Z"/>
</svg>
